<?xml version="1.0" encoding="utf-8"?>
<!-- Generator: Adobe Illustrator 20.1.0, SVG Export Plug-In . SVG Version: 6.00 Build 0)  -->
<svg version="1.0" xmlns="http://www.w3.org/2000/svg" xmlns:xlink="http://www.w3.org/1999/xlink" x="0px" y="0px"
	 viewBox="0 0 100 100" style="enable-background:new 0 0 100 100;" xml:space="preserve">
<g id="Layer_2">
	<path d="M74.9,15.6c-1.1-0.8-2.7-0.6-3.5,0.5c-0.8,1.1-0.6,2.7,0.6,3.5v0c0.4,0.3,1,0.5,1.5,0.5c0.8,0,1.5-0.4,2-1
		C76.3,18,76.1,16.4,74.9,15.6z"/>
</g>
<g id="Layer_3">
	<path d="M80.9,24.4c-1.1,0.8-1.4,2.4-0.6,3.5c0.5,0.7,1.2,1,2,1c0.5,0,1-0.2,1.5-0.5c1.1-0.8,1.4-2.4,0.5-3.5c0,0,0,0,0,0
		C83.5,23.9,82,23.6,80.9,24.4z"/>
</g>
<g id="Layer_4">
	<path d="M88,40.1c0.3,0,0.5,0,0.8-0.1c1.3-0.4,2-1.8,1.6-3.2c-0.4-1.3-1.8-2-3.2-1.6c-1.3,0.4-2,1.8-1.6,3.2
		C86,39.4,87,40.1,88,40.1z"/>
</g>
<g id="Layer_5">
	<path d="M92.5,50c0-0.7-0.3-1.3-0.7-1.8c-0.9-0.9-2.6-0.9-3.5,0c-0.5,0.5-0.7,1.1-0.7,1.8c0,0.7,0.3,1.3,0.7,1.8
		c0.5,0.5,1.1,0.7,1.8,0.7s1.3-0.3,1.8-0.7C92.2,51.3,92.5,50.7,92.5,50z"/>
</g>
<g id="Layer_6">
	<path d="M90.4,63.1c0.4-1.3-0.3-2.7-1.6-3.1c-1.3-0.4-2.7,0.3-3.1,1.6c-0.4,1.3,0.3,2.7,1.6,3.2c0.3,0.1,0.5,0.1,0.8,0.1
		C89.1,64.9,90.1,64.2,90.4,63.1z"/>
</g>
<g id="Layer_7">
	<path d="M80.9,75.5c0.4,0.3,1,0.5,1.5,0.5c0.8,0,1.5-0.4,2-1c0.8-1.1,0.6-2.7-0.6-3.5c-1.1-0.8-2.7-0.6-3.5,0.6
		C79.5,73.1,79.8,74.7,80.9,75.5z"/>
</g>
<g id="Layer_8">
	<path d="M72.1,80.3c-1.1,0.8-1.4,2.4-0.6,3.5c0.5,0.7,1.2,1,2,1c0.5,0,1-0.2,1.5-0.5c1.1-0.8,1.4-2.4,0.6-3.5
		C74.7,79.8,73.2,79.5,72.1,80.3z"/>
</g>
<g id="Layer_9">
	<path d="M62.4,90.5c0.2,0,0.5,0,0.8-0.1c1.3-0.4,2-1.8,1.6-3.2c-0.4-1.3-1.8-2-3.2-1.6c-1.3,0.4-2,1.8-1.6,3.2
		C60.3,89.9,61.3,90.5,62.4,90.5z"/>
</g>
<g id="Layer_10">
	<circle cx="50" cy="90" r="2.5"/>
</g>
<g id="Layer_11">
	<path d="M36.9,90.4c0.2,0.1,0.5,0.1,0.8,0.1c1.1,0,2-0.7,2.4-1.7c0.4-1.3-0.3-2.7-1.6-3.2c-1.3-0.4-2.7,0.3-3.1,1.6
		C34.9,88.6,35.6,90,36.9,90.4z"/>
</g>
<g id="Layer_12">
	<path d="M24.5,80.9c-0.8,1.1-0.6,2.7,0.5,3.5c0.4,0.3,1,0.5,1.5,0.5c0.8,0,1.5-0.4,2-1c0.8-1.1,0.6-2.7-0.5-3.5
		C26.9,79.5,25.3,79.8,24.5,80.9z"/>
</g>
<g id="Layer_13">
	<path d="M19.1,75.6c1.1-0.8,1.4-2.4,0.5-3.5c-0.8-1.1-2.4-1.4-3.5-0.6c-1.1,0.8-1.4,2.4-0.5,3.5c0,0,0,0,0,0c0.5,0.7,1.3,1,2,1
		C18.2,76,18.7,75.9,19.1,75.6z"/>
</g>
<g id="Layer_14">
	<path d="M12,64.9c0.3,0,0.5,0,0.8-0.1c1.3-0.4,2-1.8,1.6-3.2v0c-0.4-1.3-1.8-2-3.1-1.6c-1.3,0.4-2,1.8-1.6,3.2
		C9.9,64.2,10.9,64.9,12,64.9z"/>
</g>
<g id="Layer_15">
	<path d="M7.5,50c0,0.7,0.3,1.3,0.7,1.8c0.5,0.5,1.1,0.7,1.8,0.7s1.3-0.3,1.8-0.7c0.5-0.5,0.7-1.1,0.7-1.8c0-0.7-0.3-1.3-0.7-1.8
		c-0.9-0.9-2.6-0.9-3.5,0C7.8,48.7,7.5,49.3,7.5,50z"/>
</g>
<g id="Layer_16">
	<path d="M12.7,35.3c-1.3-0.4-2.7,0.3-3.2,1.6c-0.4,1.3,0.3,2.7,1.6,3.2c0.3,0.1,0.5,0.1,0.8,0.1c1.1,0,2-0.7,2.4-1.7h0
		C14.8,37.1,14,35.7,12.7,35.3z"/>
</g>
<g id="Layer_17">
	<path d="M16.2,28.5c0.4,0.3,1,0.5,1.5,0.5c0.8,0,1.5-0.4,2-1c0.8-1.1,0.6-2.7-0.5-3.5s-2.7-0.6-3.5,0.5
		C14.8,26.1,15,27.7,16.2,28.5z"/>
</g>
<g id="Layer_18">
	<path d="M25,15.6c-1.1,0.8-1.4,2.4-0.5,3.5c0.5,0.7,1.2,1,2,1c0.5,0,1-0.2,1.5-0.5c1.1-0.8,1.4-2.4,0.5-3.5
		C27.7,15.1,26.1,14.8,25,15.6z"/>
</g>
<g id="Layer_19">
	<path d="M37.6,14.4c0.3,0,0.5,0,0.8-0.1c1.3-0.4,2-1.8,1.6-3.1c-0.4-1.3-1.8-2-3.2-1.6c-1.3,0.4-2,1.8-1.6,3.1
		C35.6,13.8,36.6,14.4,37.6,14.4z"/>
</g>
<g id="Layer_20">
	<circle cx="50" cy="10" r="2.5"/>
</g>
<g id="Layer_21">
	<path d="M62.3,14.4c1,0,2-0.7,2.4-1.7c0.4-1.3-0.3-2.7-1.6-3.1c-1.3-0.4-2.7,0.3-3.1,1.6c-0.4,1.3,0.3,2.7,1.6,3.2
		C61.8,14.4,62.1,14.4,62.3,14.4z"/>
</g>
</svg>
